<?xml version="1.0" encoding="UTF-8" standalone="no"?>
<svg version="1.1" id="svg18" width="196" height="256" viewBox="0 0 196 256" sodipodi:docname="Logo.svg"
   inkscape:version="1.2.1 (9c6d41e410, 2022-07-14)" xmlns:inkscape="http://www.inkscape.org/namespaces/inkscape"
   xmlns:sodipodi="http://sodipodi.sourceforge.net/DTD/sodipodi-0.dtd" xmlns="http://www.w3.org/2000/svg"
   xmlns:svg="http://www.w3.org/2000/svg">
   <defs id="defs22" />
   <sodipodi:namedview id="namedview20" pagecolor="#ffffff" bordercolor="#000000" borderopacity="0.25"
      inkscape:showpageshadow="2" inkscape:pageopacity="0.0" inkscape:pagecheckerboard="0" inkscape:deskcolor="#d1d1d1"
      showgrid="false" inkscape:zoom="1.9091199" inkscape:cx="298.5669" inkscape:cy="147.71205"
      inkscape:window-width="1920" inkscape:window-height="1011" inkscape:window-x="0" inkscape:window-y="0"
      inkscape:window-maximized="1" inkscape:current-layer="g28">
      <inkscape:page x="0" y="0" id="page24" width="196" height="256" />
   </sodipodi:namedview>
   <g id="g26" inkscape:groupmode="layer" inkscape:label="Page 1"
      transform="matrix(1.3333333,0,0,-1.3333333,0,706.94667)">
      <g id="g28" transform="scale(0.1)">
         <path
            d="M 1437.517,5265.9831 C 1055.6984,5328.3043 613.37722,5323.3917 261.2132,5143.0121 149.45796,5085.7833 36.491072,5000.4567 6.0510819,4872.1632 -18.919868,4766.9252 36.130822,4666.7467 120.85189,4609.1741 c 99.35987,-67.5279 231.95963,-91.2543 348.51252,-107.0233 136.34958,-18.4537 274.58212,-21.1716 411.60301,-8.7765 99.86739,9.006 216.09328,26.0352 300.25748,85.049 66.0703,46.339 73.4555,110.576 -7.7943,140.5578 -206.38286,76.1733 -489.46348,38.119 -690.8193,-34.7635 -95.69192,-34.6317 -203.05882,-91.4995 -242.97955,-191.2692 -38.56168,-96.4286 10.16848,-177.8584 91.28719,-230.0111 102.88033,-66.169 239.70469,-84.5248 358.86115,-94.0215 115.93072,-9.235 244.97729,-6.3039 354.76751,36.2854 72.2108,28.0164 150.9723,98.4592 62.878,159.4049 -96.0364,66.4309 -257.43844,60.2413 -366.83572,48.3866 -107.51433,-11.6748 -238.78779,-50.7939 -304.82566,-143.342 -58.07996,-81.4298 -65.54671,-178.1369 7.36842,-251.8867 65.38298,-66.1361 166.15093,-97.0022 254.19604,-117.5685 73.42281,-17.1438 157.65272,-32.9776 230.35498,-6.2385 26.62485,9.8244 60.11049,38.087 41.01782,67.9374 -36.71132,57.3099 -137.75777,51.4811 -195.10084,45.5372 -83.23103,-8.6453 -182.72182,-44.2925 -234.08838,-114.0807 -150.10395,-203.9101 194.85536,-272.8955 326.07975,-274.2711 36.28575,-0.36 83.32913,11.3803 104.04286,44.4892 19.84575,31.7503 -16.70195,51.2033 -44.21084,51.481 -86.83341,0.9012 -274.84417,9.3177 -255.24404,137.66 7.67949,50.2689 121.9237,92.5806 152.13429,45.3404 13.67284,22.646 27.34554,45.2917 41.01807,67.9374 42.93359,15.7852 49.94179,8.2691 11.6914,11.4462 -19.32201,1.5884 -38.33258,4.9772 -57.35974,8.5632 -57.0483,10.7089 -112.73761,27.5747 -164.87371,53.184 -100.75149,49.4677 -152.1999,172.3406 -39.92068,247.0569 88.99476,59.1769 258.55172,48.7302 352.67172,7.4017 3.52052,-1.5397 25.33111,-14.082 25.2329,-14.77 0.54037,4.1756 8.4654,6.2879 -1.96492,1.6863 -29.19561,-12.8537 -90.55038,-17.3567 -131.3718,-18.5357 -120.72849,-3.4874 -607.37526,44.0471 -443.09104,272.1428 55.98408,77.7126 191.85875,97.7873 278.31554,110.4938 106.61357,15.687 220.82505,20.7792 327.16018,0.2622 21.1883,-4.0934 40.9852,-9.1364 59.3405,-20.5499 -4.5678,2.8332 3.4393,7.5002 -10.5449,-1.2282 -45.9625,-28.6709 -148.85939,-34.4025 -213.40718,-38.8558 -192.90671,-13.2798 -428.56698,-1.1955 -599.45006,98.7699 -68.37946,40.0028 -101.84874,115.9638 -93.26857,194.1837 11.33106,103.1101 111.7061,169.3934 196.67284,210.4764 293.67467,142.0155 668.40297,138.5602 982.88917,87.2425 38.6273,-6.3036 82.6248,2.1129 111.837,29.9653 23.2189,22.1385 18.405,55.3946 -16.374,61.06 v 0"
            style="fill:#ed1c24;fill-opacity:1;fill-rule:nonzero;stroke:none;stroke-width:1.63742" id="path68" />
         <path
            d="m 837.14961,3418.428 c 0.55683,0 1.09711,0 1.63751,0 34.82834,0 82.21584,12.6907 104.87797,41.3457 23.26797,29.4905 -19.76382,39.6589 -41.03426,39.6589 -49.41787,0 -98.83596,0 -148.2538,0 -34.8282,0 -82.24851,-12.69 -104.89436,-41.3783 -23.54634,-29.8015 20.07506,-39.0524 41.03429,-39.6263 40.83775,-1.1459 81.10238,-11.1019 122.18552,-12.2477 31.84844,-0.8681 69.44404,11.1839 94.39854,31.0787 27.18158,21.6957 16.66908,41.3948 -13.08311,48.8453 -54.44486,13.5901 -107.77628,24.3315 -164.08776,25.576 -27.00142,0.606 -56.45894,-8.2525 -79.82522,-21.3849 -11.59307,-6.5002 -47.30558,-32.3719 -25.90419,-48.7465 48.64819,-37.1861 103.10945,-57.507 164.38247,-59.3569 64.62975,-1.9485 142.40804,27.1157 171.40706,87.9791 15.04813,31.603 -54.69035,29.3924 -66.61094,27.6734 -32.48684,-4.6504 -75.53518,-18.1105 -90.81241,-50.1882 -0.60599,-1.0149 -1.19541,-2.0788 -1.8012,-3.1274 14.83517,11.2495 32.0774,17.4885 51.67758,18.6675 -5.41987,-0.213 -15.73577,3.2908 -21.58135,5.2228 -21.71252,7.0574 -41.05061,18.5687 -59.06252,32.3563 -35.23767,-23.383 -70.47538,-46.7491 -105.71304,-70.0989 43.76869,-0.999 86.89887,-12.8215 129.17752,-23.3828 27.08334,26.6411 54.18298,53.2818 81.29891,79.8905 -40.8541,1.1461 -81.11877,11.1023 -122.18579,12.2483 -21.28673,-27.0177 -42.57338,-54.0191 -63.86007,-81.0046 49.41787,0 98.85212,0 148.27016,0 34.82834,0 82.21584,12.6907 104.87797,41.3457 23.26797,29.4905 -19.76382,39.6589 -41.03426,39.6589 -0.5403,0 -1.09712,0 -1.6374,0 -34.82844,0 -82.2322,-12.69 -104.87798,-41.3783 -23.26807,-29.4901 19.78015,-39.6263 41.03416,-39.6263 v 0"
            style="fill:#ed1c24;fill-opacity:1;fill-rule:nonzero;stroke:none;stroke-width:1.63742" id="path70" />
      </g>
   </g>
</svg>